HIERARCHY
ROOT pelvis
{
	OFFSET 0.000000 0.712444 -0.000000
	CHANNELS 6 Xposition Yposition Zposition Xrotation Yrotation Zrotation
	JOINT spine
	{
		OFFSET 0.000000 0.000000 0.000000
		CHANNELS 6 Xposition Yposition Zposition Xrotation Yrotation Zrotation
		JOINT spine.001
		{
			OFFSET 0.000000 0.253490 0.013285
			CHANNELS 3 Xrotation Yrotation Zrotation
			JOINT neck
			{
				OFFSET 0.000000 0.251946 -0.030935
				CHANNELS 6 Xposition Yposition Zposition Xrotation Yrotation Zrotation
				JOINT face
				{
					OFFSET 0.000000 0.193254 -0.003373
					CHANNELS 6 Xposition Yposition Zposition Xrotation Yrotation Zrotation
					End Site
					{
						OFFSET 0.000000 -0.007386 0.029365
					}
				}
			}
			JOINT shoulder.L
			{
				OFFSET 0.000000 0.251946 -0.030935
				CHANNELS 6 Xposition Yposition Zposition Yrotation Xrotation Zrotation
				JOINT upper_arm.L
				{
					OFFSET 0.153480 0.000000 0.000000
					CHANNELS 6 Xposition Yposition Zposition Xrotation Yrotation Zrotation
					JOINT forearm.L
					{
						OFFSET 0.244461 0.000915 -0.000110
						CHANNELS 6 Xposition Yposition Zposition Xrotation Yrotation Zrotation
						End Site
						{
							OFFSET 0.230673 -0.001262 0.003925
						}
					}
				}
			}
			JOINT shoulder.R
			{
				OFFSET 0.000000 0.251946 -0.030935
				CHANNELS 6 Xposition Yposition Zposition Yrotation Xrotation Zrotation
				JOINT upper_arm.R
				{
					OFFSET -0.153480 0.000000 0.000000
					CHANNELS 6 Xposition Yposition Zposition Xrotation Yrotation Zrotation
					JOINT forearm.R
					{
						OFFSET -0.246364 0.000915 -0.000110
						CHANNELS 6 Xposition Yposition Zposition Xrotation Yrotation Zrotation
						End Site
						{
							OFFSET -0.233754 -0.001262 0.003979
						}
					}
				}
			}
		}
	}
	JOINT pelvis.L
	{
		OFFSET 0.000000 0.000000 0.000000
		CHANNELS 6 Xposition Yposition Zposition Yrotation Xrotation Zrotation
		End Site
		{
			OFFSET 0.102775 0.000000 0.000000
		}
	}
	JOINT pelvis.R
	{
		OFFSET 0.000000 0.000000 0.000000
		CHANNELS 6 Xposition Yposition Zposition Yrotation Xrotation Zrotation
		End Site
		{
			OFFSET -0.102775 0.000000 0.000000
		}
	}
	JOINT thigh.L
	{
		OFFSET 0.102775 0.000000 0.000000
		CHANNELS 6 Xposition Yposition Zposition Xrotation Yrotation Zrotation
		JOINT shin.L
		{
			OFFSET 0.017753 -0.338753 0.000000
			CHANNELS 6 Xposition Yposition Zposition Xrotation Yrotation Zrotation
			JOINT foot.L
			{
				OFFSET 0.015777 -0.301042 0.000000
				CHANNELS 6 Xposition Yposition Zposition Xrotation Yrotation Zrotation
				End Site
				{
					OFFSET 0.014599 -0.062506 0.148854
				}
			}
		}
	}
	JOINT thigh.R
	{
		OFFSET -0.102775 0.000000 0.000000
		CHANNELS 6 Xposition Yposition Zposition Xrotation Yrotation Zrotation
		JOINT shin.R
		{
			OFFSET -0.017866 -0.340896 0.000000
			CHANNELS 6 Xposition Yposition Zposition Xrotation Yrotation Zrotation
			JOINT foot.R
			{
				OFFSET -0.016267 -0.310402 0.000000
				CHANNELS 6 Xposition Yposition Zposition Xrotation Yrotation Zrotation
				End Site
				{
					OFFSET -0.015831 -0.067781 0.161416
				}
			}
		}
	}
}
MOTION
Frames: 6
Frame Time: 0.041667
0.045487 -0.009292 -0.026406 -0.000000 -0.119020 -0.000000 -0.000000 -0.000000 -0.000000 -9.378108 0.315328 -2.335281 10.005524 2.244963 -0.275764 -0.000000 0.251946 -0.030935 2.781158 2.741710 1.735427 -0.000000 0.193254 -0.003373 5.828065 -0.000001 0.000001 -0.000000 0.251946 -0.030935 0.197047 -0.002760 1.604922 0.153480 -0.000000 -0.000000 -31.070671 -32.661435 -87.336078 0.244461 0.000915 -0.000110 -45.173526 -36.975994 -104.365065 -0.000000 0.251946 -0.030935 0.190530 -0.002580 1.551695 -0.153480 0.000000 -0.000000 -23.199289 28.676997 77.865010 -0.246364 0.000915 -0.000110 -37.470715 29.170498 107.842772 -0.000000 0.000000 0.000000 0.000100 0.000001 -0.287000 -0.000000 0.000000 0.000000 0.000000 -0.000000 -0.287033 0.102773 -0.000515 0.000000 -0.648225 0.002837 -6.502758 0.017753 -0.338753 0.000000 5.889657 0.188141 -2.343906 0.015777 -0.301042 0.000000 -6.789957 19.900067 10.352412 -0.102773 0.000515 0.000000 -2.024341 0.112700 -0.372385 -0.017866 -0.340896 0.000000 11.476226 -0.527040 0.758679 -0.016267 -0.310402 0.000000 -13.295164 -9.009803 -6.411023 
0.045282 -0.009348 -0.026383 -0.000000 -0.105900 -0.000000 -0.000000 -0.000000 -0.000000 -9.378899 0.314179 -2.326669 10.005501 2.247535 -0.276078 -0.000000 0.251946 -0.030935 4.010515 2.550021 1.566959 -0.000000 0.193255 -0.003373 6.490626 0.000003 0.000000 -0.000000 0.251946 -0.030935 0.192878 -0.002646 1.571561 0.153480 -0.000000 -0.000000 -30.776849 -32.545766 -86.979112 0.244461 0.000915 -0.000110 -45.255823 -36.635096 -105.058295 -0.000000 0.251946 -0.030935 0.186417 -0.002467 1.518333 -0.153480 -0.000000 0.000000 -22.141293 27.594106 77.423241 -0.246364 0.000915 -0.000110 -36.490962 28.319083 108.103378 0.000000 0.000000 0.000000 0.000071 0.000000 -0.287000 0.000000 0.000000 0.000000 0.000000 -0.000000 -0.286967 0.102773 -0.000515 0.000000 -0.654103 0.002765 -6.485714 0.017753 -0.338753 0.000000 5.900087 0.187761 -2.357726 0.015777 -0.301042 0.000000 -6.776928 19.903159 10.349851 -0.102773 0.000515 0.000000 -2.015909 0.111476 -0.329581 -0.017866 -0.340896 0.000000 11.458477 -0.530568 0.715410 -0.016267 -0.310402 0.000000 -13.275589 -9.029603 -6.417887 
0.045007 -0.009245 -0.026437 -0.000000 -0.086237 -0.000000 -0.000000 -0.000000 0.000000 -9.431741 0.308490 -2.276651 10.004724 2.085851 -0.256213 -0.000000 0.251946 -0.030935 6.000066 2.345873 1.029153 -0.000000 0.193254 -0.003373 7.423295 -0.000003 -0.000000 -0.000000 0.251946 -0.030935 0.178116 -0.002254 1.450651 0.153480 -0.000000 -0.000000 -30.113044 -32.200958 -86.313428 0.244461 0.000915 -0.000110 -45.477790 -36.217017 -106.074778 -0.000000 0.251946 -0.030935 0.171565 -0.002091 1.397423 -0.153480 0.000000 -0.000000 -21.476049 26.794028 77.380941 -0.246364 0.000915 -0.000110 -34.826195 27.137735 107.991042 -0.000000 0.000000 -0.000000 0.000009 0.000000 -0.298198 -0.000000 0.000000 -0.000000 0.000000 -0.000000 -0.298165 0.102773 -0.000535 0.000000 -0.670963 0.002809 -6.481193 0.017753 -0.338753 0.000000 5.914651 0.188821 -2.346177 0.015777 -0.301042 0.000000 -6.691856 19.935017 10.338683 -0.102773 0.000535 0.000000 -2.016889 0.110171 -0.252637 -0.017866 -0.340896 0.000000 11.438448 -0.537844 0.633665 -0.016267 -0.310402 0.000000 -13.170293 -9.055725 -6.410106 
0.044664 -0.009125 -0.026634 -0.000000 0.012948 -0.000000 -0.000000 0.000000 -0.000000 -9.523627 0.297029 -2.178943 10.003222 1.745939 -0.214455 -0.000000 0.251946 -0.030935 8.681631 2.508864 0.165058 -0.000000 0.193254 -0.003373 8.536216 -0.000003 0.000000 -0.000000 0.251946 -0.030935 0.152350 -0.001655 1.241016 0.153480 -0.000000 -0.000000 -28.871165 -31.422039 -85.269250 0.244461 0.000915 -0.000110 -46.591883 -36.677692 -106.768971 -0.000000 0.251946 -0.030935 0.145828 -0.001517 1.187745 -0.153480 -0.000000 -0.000000 -21.602574 26.673699 77.977456 -0.246364 0.000915 -0.000110 -33.619113 26.546884 107.295162 -0.000000 0.000000 -0.000000 0.000028 0.000000 -0.319963 -0.000000 0.000000 -0.000000 0.000000 -0.000000 -0.319963 0.102773 -0.000574 0.000000 -0.723936 0.003035 -6.481804 0.017753 -0.338753 0.000000 5.964720 0.191875 -2.318349 0.015777 -0.301042 0.000000 -6.561233 19.932071 10.296447 -0.102773 0.000574 0.000000 -2.023377 0.108910 -0.161622 -0.017866 -0.340896 0.000000 11.436920 -0.545142 0.560194 -0.016267 -0.310402 0.000000 -13.022672 -9.134793 -6.422610 
0.044245 -0.009308 -0.027056 -0.000000 0.285881 -0.000000 -0.000000 -0.000000 0.000000 -9.579793 0.286536 -2.094340 10.002074 1.398765 -0.171782 0.000000 0.251946 -0.030935 11.670866 2.911686 -0.674766 -0.000000 0.193254 -0.003373 9.793948 -0.000003 0.000001 0.000000 0.251946 -0.030935 0.123251 -0.001080 1.003846 0.153480 0.000000 -0.000000 -27.189834 -30.269599 -83.941352 0.244461 0.000915 -0.000110 -49.257091 -38.915857 -106.507832 0.000000 0.251946 -0.030935 0.116707 -0.000968 0.950622 -0.153480 -0.000000 0.000000 -22.021913 26.800050 78.807023 -0.246364 0.000915 -0.000110 -33.799150 27.024789 106.511384 0.000000 -0.000000 -0.000000 -0.000138 -0.000001 -0.348042 0.000000 0.000000 -0.000000 0.000000 -0.000000 -0.348009 0.102773 -0.000624 -0.000000 -0.847234 0.003439 -6.466308 0.017753 -0.338753 0.000000 6.095272 0.197493 -2.291929 0.015777 -0.301042 0.000000 -6.473745 19.779408 10.195636 -0.102773 0.000624 0.000000 -2.023482 0.107944 -0.106698 -0.017866 -0.340896 0.000000 11.472837 -0.544281 0.585845 -0.016267 -0.310402 0.000000 -12.953292 -9.331223 -6.516243 
0.043729 -0.009924 -0.027759 -0.000000 0.740423 -0.000000 0.000000 -0.000000 -0.000000 -9.540039 0.285096 -2.089215 10.001718 1.254200 -0.154008 -0.000000 0.251946 -0.030935 14.586492 3.250436 -1.210371 0.000000 0.193254 -0.003373 11.016100 0.000005 0.000001 0.000000 0.251946 -0.030935 0.101567 -0.000735 0.827495 0.153480 -0.000000 -0.000000 -25.291058 -28.794288 -82.643267 0.244461 0.000915 -0.000110 -52.020968 -41.900140 -105.278658 0.000000 0.251946 -0.030935 0.095050 -0.000644 0.774270 -0.153480 -0.000000 -0.000000 -21.658347 26.187078 79.193284 -0.246364 0.000915 -0.000110 -34.288014 27.529043 106.210644 -0.000000 -0.000000 0.000000 -0.000097 -0.000001 -0.391274 -0.000000 0.000000 0.000000 0.000000 -0.000000 -0.391307 0.102772 -0.000702 0.000000 -1.056319 0.003778 -6.410901 0.017753 -0.338753 0.000000 6.323400 0.205515 -2.280724 0.015777 -0.301042 0.000000 -6.477888 19.441964 10.034491 -0.102772 0.000702 -0.000000 -2.003826 0.107421 -0.136685 -0.017866 -0.340896 0.000000 11.512668 -0.526735 0.778386 -0.016267 -0.310402 0.000000 -12.997920 -9.663937 -6.709442 
